<svg width="24" height="24" viewBox="0 0 24 24" fill="none" xmlns="http://www.w3.org/2000/svg">
<path fill-rule="evenodd" clip-rule="evenodd" d="M18.8512 6.45116C18.9367 6.36575 19.0045 6.26433 19.0509 6.1527C19.0972 6.04106 19.1211 5.92139 19.1211 5.80053C19.1212 5.67967 19.0975 5.55997 19.0513 5.44828C19.0051 5.33658 18.9374 5.23508 18.852 5.14956C18.7666 5.06405 18.6651 4.99619 18.5535 4.94987C18.4419 4.90355 18.3222 4.87967 18.2013 4.87959C18.0805 4.87952 17.9608 4.90325 17.8491 4.94944C17.7374 4.99562 17.6359 5.06335 17.5504 5.14876L12 10.6992L6.45116 5.14876C6.27846 4.97606 6.04421 4.87903 5.79996 4.87903C5.55572 4.87903 5.32147 4.97606 5.14876 5.14876C4.97606 5.32147 4.87903 5.55572 4.87903 5.79996C4.87903 6.04421 4.97606 6.27846 5.14876 6.45116L10.6992 12L5.14876 17.5488C5.06325 17.6343 4.99541 17.7358 4.94913 17.8475C4.90285 17.9593 4.87903 18.079 4.87903 18.2C4.87903 18.3209 4.90285 18.4407 4.94913 18.5524C4.99541 18.6641 5.06325 18.7656 5.14876 18.8512C5.32147 19.0239 5.55572 19.1209 5.79996 19.1209C5.9209 19.1209 6.04066 19.0971 6.15239 19.0508C6.26412 19.0045 6.36565 18.9367 6.45116 18.8512L12 13.3008L17.5504 18.8512C17.7231 19.0237 17.9572 19.1205 18.2013 19.1203C18.4454 19.1202 18.6795 19.0231 18.852 18.8504C19.0245 18.6777 19.1213 18.4435 19.1211 18.1994C19.121 17.9553 19.0239 17.7213 18.8512 17.5488L13.3008 12L18.8512 6.45116Z" fill="#0D0D0D"/>
</svg>
