<svg width="24" height="24" viewBox="0 0 24 24" fill="none" xmlns="http://www.w3.org/2000/svg">
<g clip-path="url(#clip0_1_321)">
<path fill-rule="evenodd" clip-rule="evenodd" d="M12.707 15.707C12.5194 15.8944 12.2651 15.9998 12 15.9998C11.7348 15.9998 11.4805 15.8944 11.293 15.707L5.63598 10.05C5.54047 9.95773 5.46428 9.84739 5.41188 9.72538C5.35947 9.60338 5.33188 9.47216 5.33073 9.33938C5.32957 9.2066 5.35487 9.07492 5.40516 8.95202C5.45544 8.82913 5.52969 8.71747 5.62358 8.62358C5.71747 8.52969 5.82913 8.45544 5.95202 8.40515C6.07492 8.35487 6.2066 8.32957 6.33938 8.33073C6.47216 8.33188 6.60338 8.35947 6.72538 8.41188C6.84739 8.46428 6.95773 8.54047 7.04998 8.63598L12 13.586L16.95 8.63598C17.1386 8.45382 17.3912 8.35302 17.6534 8.3553C17.9156 8.35758 18.1664 8.46275 18.3518 8.64816C18.5372 8.83357 18.6424 9.08438 18.6447 9.34658C18.6469 9.60877 18.5461 9.86137 18.364 10.05L12.707 15.707Z" fill="#0D0D0D"/>
</g>
<defs>
<clipPath id="clip0_1_321">
<rect width="24" height="24" fill="white"/>
</clipPath>
</defs>
</svg>
