<svg width="24" height="24" viewBox="0 0 24 24" fill="none" xmlns="http://www.w3.org/2000/svg">
<path fill-rule="evenodd" clip-rule="evenodd" d="M12.707 2.29303C12.5194 2.10556 12.2651 2.00024 12 2.00024C11.7348 2.00024 11.4805 2.10556 11.293 2.29303L4.29296 9.29303L2.29296 11.293C2.19745 11.3853 2.12127 11.4956 2.06886 11.6176C2.01645 11.7396 1.98886 11.8709 1.98771 12.0036C1.98655 12.1364 2.01186 12.2681 2.06214 12.391C2.11242 12.5139 2.18667 12.6255 2.28056 12.7194C2.37446 12.8133 2.48611 12.8876 2.60901 12.9379C2.7319 12.9881 2.86358 13.0134 2.99636 13.0123C3.12914 13.0111 3.26036 12.9835 3.38236 12.9311C3.50437 12.8787 3.61471 12.8025 3.70696 12.707L3.99996 12.414V19C3.99996 19.7957 4.31603 20.5587 4.87864 21.1214C5.44125 21.684 6.20431 22 6.99996 22H17C17.7956 22 18.5587 21.684 19.1213 21.1214C19.6839 20.5587 20 19.7957 20 19V12.414L20.293 12.707C20.4816 12.8892 20.7342 12.99 20.9964 12.9877C21.2586 12.9854 21.5094 12.8803 21.6948 12.6948C21.8802 12.5094 21.9854 12.2586 21.9876 11.9964C21.9899 11.7342 21.8891 11.4816 21.707 11.293L12.707 2.29303Z" fill="white"/>
</svg>
