<svg width="24" height="24" viewBox="0 0 24 24" fill="none" xmlns="http://www.w3.org/2000/svg">
<g clip-path="url(#clip0_1_557)">
<path fill-rule="evenodd" clip-rule="evenodd" d="M8.2929 12.707C8.10543 12.5194 8.00011 12.2651 8.00011 12C8.00011 11.7348 8.10543 11.4805 8.2929 11.293L13.9499 5.63598C14.0421 5.54047 14.1525 5.46428 14.2745 5.41188C14.3965 5.35947 14.5277 5.33188 14.6605 5.33073C14.7933 5.32957 14.925 5.35487 15.0479 5.40516C15.1708 5.45544 15.2824 5.52969 15.3763 5.62358C15.4702 5.71747 15.5444 5.82913 15.5947 5.95202C15.645 6.07492 15.6703 6.2066 15.6692 6.33938C15.668 6.47216 15.6404 6.60338 15.588 6.72538C15.5356 6.84739 15.4594 6.95773 15.3639 7.04998L10.4139 12L15.3639 16.95C15.5461 17.1386 15.6469 17.3912 15.6446 17.6534C15.6423 17.9156 15.5371 18.1664 15.3517 18.3518C15.1663 18.5372 14.9155 18.6424 14.6533 18.6447C14.3911 18.6469 14.1385 18.5461 13.9499 18.364L8.2929 12.707Z" fill="#0D0D0D"/>
</g>
<defs>
<clipPath id="clip0_1_557">
<rect width="24" height="24" fill="white" transform="matrix(0 1 -1 0 24 0)"/>
</clipPath>
</defs>
</svg>
