<svg width="24" height="24" viewBox="0 0 24 24" fill="none" xmlns="http://www.w3.org/2000/svg">
<path fill-rule="evenodd" clip-rule="evenodd" d="M18.851 6.45116C18.9366 6.36575 19.0044 6.26433 19.0507 6.1527C19.0971 6.04106 19.1209 5.92139 19.121 5.80053C19.1211 5.67967 19.0974 5.55997 19.0512 5.44828C19.005 5.33658 18.9373 5.23508 18.8518 5.14956C18.7664 5.06405 18.665 4.99619 18.5534 4.94987C18.4417 4.90355 18.3221 4.87967 18.2012 4.87959C18.0803 4.87952 17.9606 4.90325 17.849 4.94944C17.7373 4.99562 17.6358 5.06335 17.5502 5.14876L11.9998 10.6992L6.45104 5.14876C6.27833 4.97606 6.04409 4.87903 5.79984 4.87903C5.55559 4.87903 5.32135 4.97606 5.14864 5.14876C4.97593 5.32147 4.87891 5.55572 4.87891 5.79996C4.87891 6.04421 4.97593 6.27846 5.14864 6.45116L10.699 12L5.14864 17.5488C5.06313 17.6343 4.99529 17.7358 4.94901 17.8475C4.90273 17.9593 4.87891 18.079 4.87891 18.2C4.87891 18.3209 4.90273 18.4407 4.94901 18.5524C4.99529 18.6641 5.06313 18.7656 5.14864 18.8512C5.32135 19.0239 5.55559 19.1209 5.79984 19.1209C5.92078 19.1209 6.04054 19.0971 6.15227 19.0508C6.264 19.0045 6.36553 18.9367 6.45104 18.8512L11.9998 13.3008L17.5502 18.8512C17.723 19.0237 17.9571 19.1205 18.2012 19.1203C18.4453 19.1202 18.6793 19.0231 18.8518 18.8504C19.0243 18.6777 19.1212 18.4435 19.121 18.1994C19.1209 17.9553 19.0238 17.7213 18.851 17.5488L13.3006 12L18.851 6.45116Z" fill="white"/>
</svg>
