<svg width="20" height="20" viewBox="0 0 20 20" fill="none" xmlns="http://www.w3.org/2000/svg">
<path d="M14.3618 1.87505H5.6194C5.12375 1.87501 4.63303 1.97293 4.1757 2.16314C3.71837 2.35335 3.30353 2.63206 2.95523 2.9831C2.60694 3.33413 2.33213 3.75051 2.14675 4.2081C1.96137 4.66567 1.8691 5.15534 1.87529 5.64869V14.3513C1.8691 14.8447 1.96137 15.3343 2.14675 15.7919C2.33213 16.2495 2.60694 16.6659 2.95523 17.0169C3.30353 17.368 3.71837 17.6467 4.1757 17.8369C4.63303 18.0271 5.12375 18.125 5.6194 18.125H9.58818V12.3201H8.07178C7.97745 12.3201 7.88698 12.2828 7.82028 12.2164C7.75357 12.15 7.7161 12.0599 7.7161 11.9661V10.1025C7.7161 10.0062 7.75456 9.91375 7.82302 9.84558C7.89148 9.77741 7.98433 9.73917 8.08114 9.73917H9.58818V7.92219C9.54626 7.49323 9.59884 7.06033 9.74226 6.65368C9.88568 6.24703 10.1165 5.87642 10.4186 5.5677C10.7207 5.25898 11.0868 5.01958 11.4914 4.86621C11.8961 4.71283 12.3294 4.64916 12.7613 4.67966H14.3058C14.3533 4.67964 14.4003 4.6891 14.444 4.70746C14.4878 4.72584 14.5274 4.75276 14.5606 4.78663C14.5938 4.8205 14.6198 4.86064 14.6371 4.90468C14.6544 4.94872 14.6627 4.99576 14.6614 5.04304V6.61772C14.6614 6.71162 14.6239 6.80168 14.5573 6.86809C14.4905 6.93449 14.4001 6.97179 14.3058 6.97179H13.3697C12.3401 6.97179 12.1435 7.45631 12.1435 8.16445V9.72983H14.3899C14.4408 9.72933 14.4913 9.73983 14.5378 9.76041C14.5843 9.78108 14.6258 9.81141 14.6596 9.84941C14.6933 9.88741 14.7184 9.93217 14.7333 9.98067C14.7482 10.0291 14.7523 10.0802 14.7457 10.1305L14.521 11.994C14.5118 12.0813 14.4702 12.1621 14.4044 12.2206C14.3388 12.2792 14.2535 12.3112 14.1653 12.3108H12.1528V18.1157H14.3806C14.8763 18.1157 15.3669 18.0178 15.8243 17.8276C16.2817 17.6374 16.6965 17.3587 17.0448 17.0077C17.3931 16.6566 17.6678 16.2402 17.8533 15.7827C18.0386 15.3251 18.1309 14.8354 18.1247 14.342V5.64869C18.1309 5.15376 18.0381 4.66256 17.8515 4.20376C17.6649 3.74496 17.3885 3.32773 17.0382 2.97644C16.6879 2.62516 16.2708 2.34683 15.8113 2.15773C15.3518 1.96863 14.8591 1.87253 14.3618 1.87505Z" fill="#1778F2"/>
</svg>
