<svg width="24" height="24" viewBox="0 0 24 24" fill="none" xmlns="http://www.w3.org/2000/svg">
<path d="M18.55 19.5499C18.0663 19.961 17.5477 20.329 17 20.6499C14.7044 21.9768 11.9759 22.3376 9.41432 21.6532C6.85273 20.9687 4.66784 19.2949 3.34004 16.9999C3.23022 16.8187 3.13008 16.6317 3.04004 16.4399L6.24004 13.9399C6.65129 15.1427 7.42686 16.1876 8.45907 16.9295C9.49128 17.6714 10.7288 18.0735 12 18.0799C13.0547 18.075 14.0895 17.7922 15 17.2599C15.0991 17.2094 15.1929 17.1491 15.28 17.0799L18.55 19.5499Z" fill="#2BA24C"/>
<path d="M5.91001 12C5.91231 12.6572 6.02383 13.3094 6.24001 13.93L3.00001 16.43C2.33134 15.0495 1.98918 13.5338 2.00001 12C1.99549 10.4277 2.36935 8.87739 3.09001 7.47998L6.26001 9.99998C6.02666 10.6409 5.90816 11.3179 5.91001 12Z" fill="#F0B501"/>
<path d="M18.59 5.40998L16.74 7.25998C16.619 7.36821 16.4623 7.42805 16.3 7.42805C16.1377 7.42805 15.981 7.36821 15.86 7.25998C15.1742 6.70071 14.3743 6.29841 13.5164 6.08136C12.6585 5.8643 11.7635 5.83776 10.8943 6.0036C10.0251 6.16944 9.20268 6.52364 8.48498 7.0413C7.76728 7.55895 7.17165 8.22751 6.73997 8.99998C6.55406 9.32025 6.39357 9.65461 6.25997 9.99998L3.08997 7.47998C3.16997 7.31998 3.24997 7.15998 3.33997 7.00998C4.07673 5.73504 5.08597 4.63854 6.29559 3.79881C7.50521 2.95909 8.88534 2.39687 10.3374 2.15231C11.7895 1.90775 13.2777 1.98689 14.6956 2.38408C16.1135 2.78127 17.4263 3.4867 18.54 4.44998C18.6087 4.5082 18.6648 4.57986 18.7047 4.66055C18.7447 4.74124 18.7677 4.82925 18.7724 4.91918C18.7771 5.00911 18.7633 5.09904 18.732 5.18345C18.7006 5.26785 18.6523 5.34495 18.59 5.40998Z" fill="#E43E2B"/>
<path d="M22 12.08C22.0083 13.502 21.7035 14.9084 21.1073 16.1993C20.511 17.4903 19.6379 18.6343 18.55 19.55L15.31 17.08C16.3885 16.3857 17.2184 15.3667 17.68 14.17H13.09C13.0043 14.1713 12.9191 14.1554 12.8397 14.1232C12.7602 14.0911 12.688 14.0432 12.6274 13.9826C12.5667 13.922 12.5189 13.8498 12.4867 13.7703C12.4545 13.6908 12.4386 13.6057 12.44 13.52V10.91C12.4386 10.8247 12.4545 10.74 12.4868 10.6611C12.5191 10.5821 12.5671 10.5106 12.6279 10.4507C12.6887 10.3909 12.761 10.344 12.8404 10.3129C12.9198 10.2819 13.0047 10.2673 13.09 10.27H21.24C21.393 10.2693 21.5414 10.3218 21.66 10.4185C21.7786 10.5151 21.8599 10.65 21.89 10.8C21.9653 11.2224 22.0021 11.6509 22 12.08Z" fill="#3B7DED"/>
</svg>
