<svg width="21" height="20" viewBox="0 0 21 20" fill="none" xmlns="http://www.w3.org/2000/svg">
<path fill-rule="evenodd" clip-rule="evenodd" d="M11.7071 0.293031C11.5196 0.105559 11.2652 0.000244141 11.0001 0.000244141C10.7349 0.000244141 10.4806 0.105559 10.2931 0.293031L3.29308 7.29303L1.29308 9.29303C1.19757 9.38528 1.12139 9.49562 1.06898 9.61763C1.01657 9.73963 0.988985 9.87085 0.987831 10.0036C0.986677 10.1364 1.01198 10.2681 1.06226 10.391C1.11254 10.5139 1.18679 10.6255 1.28069 10.7194C1.37458 10.8133 1.48623 10.8876 1.60913 10.9379C1.73202 10.9881 1.8637 11.0134 1.99648 11.0123C2.12926 11.0111 2.26048 10.9835 2.38249 10.9311C2.50449 10.8787 2.61483 10.8025 2.70708 10.707L3.00008 10.414V17C3.00008 17.7957 3.31615 18.5587 3.87876 19.1214C4.44137 19.684 5.20443 20 6.00008 20H16.0001C16.7957 20 17.5588 19.684 18.1214 19.1214C18.684 18.5587 19.0001 17.7957 19.0001 17V10.414L19.2931 10.707C19.4817 10.8892 19.7343 10.99 19.9965 10.9877C20.2587 10.9854 20.5095 10.8803 20.6949 10.6948C20.8803 10.5094 20.9855 10.2586 20.9878 9.99643C20.99 9.73423 20.8892 9.48163 20.7071 9.29303L11.7071 0.293031Z" fill="#0D0D0D"/>
</svg>
