<svg width="68" height="68" viewBox="0 0 68 68" fill="none" xmlns="http://www.w3.org/2000/svg">
<path d="M25.6668 49L49.0001 34L25.6668 19V49ZM34.0001 67.3333C29.389 67.3333 25.0556 66.4577 21.0001 64.7066C16.9445 62.9555 13.4168 60.5811 10.4168 57.5833C7.41675 54.5855 5.04231 51.0577 3.29342 47C1.54453 42.9422 0.668974 38.6089 0.666752 34C0.66453 29.3911 1.54009 25.0577 3.29342 21C5.04675 16.9422 7.4212 13.4144 10.4168 10.4166C13.4123 7.41885 16.9401 5.0444 21.0001 3.29329C25.0601 1.54218 29.3934 0.666626 34.0001 0.666626C38.6068 0.666626 42.9401 1.54218 47.0001 3.29329C51.0601 5.0444 54.5879 7.41885 57.5834 10.4166C60.579 13.4144 62.9545 16.9422 64.7101 21C66.4656 25.0577 67.3401 29.3911 67.3334 34C67.3268 38.6089 66.4512 42.9422 64.7068 47C62.9623 51.0577 60.5879 54.5855 57.5834 57.5833C54.579 60.5811 51.0512 62.9566 47.0001 64.71C42.949 66.4633 38.6156 67.3377 34.0001 67.3333ZM34.0001 60.6666C41.4445 60.6666 47.7501 58.0833 52.9167 52.9166C58.0834 47.75 60.6668 41.4444 60.6668 34C60.6668 26.5555 58.0834 20.25 52.9167 15.0833C47.7501 9.91663 41.4445 7.33329 34.0001 7.33329C26.5556 7.33329 20.2501 9.91663 15.0834 15.0833C9.91675 20.25 7.33342 26.5555 7.33342 34C7.33342 41.4444 9.91675 47.75 15.0834 52.9166C20.2501 58.0833 26.5556 60.6666 34.0001 60.6666Z" fill="white"/>
</svg>
