<svg width="24" height="24" viewBox="0 0 24 24" fill="none" xmlns="http://www.w3.org/2000/svg">
<path d="M11.5 3.25C10.1758 3.25009 8.87116 3.56889 7.69621 4.17948C6.52126 4.79007 5.51054 5.67451 4.74946 6.75805C3.98837 7.8416 3.49928 9.09242 3.3235 10.4048C3.14773 11.7173 3.29044 13.0527 3.73957 14.2983C4.18871 15.544 4.93107 16.6632 5.90394 17.5614C6.87681 18.4597 8.05159 19.1106 9.32904 19.4591C10.6065 19.8076 11.949 19.8435 13.2433 19.5638C14.5375 19.2841 15.7455 18.697 16.765 17.852L19.443 20.53C19.5851 20.6625 19.7732 20.7346 19.9675 20.7312C20.1618 20.7277 20.3472 20.649 20.4846 20.5116C20.622 20.3742 20.7007 20.1888 20.7041 19.9945C20.7076 19.8002 20.6354 19.6122 20.503 19.47L17.828 16.794C18.8351 15.5903 19.478 14.1242 19.6811 12.568C19.8843 11.0117 19.6393 9.42975 18.975 8.00781C18.3106 6.58587 17.2545 5.38294 15.9304 4.54021C14.6064 3.69747 13.0694 3.24989 11.5 3.25Z" fill="#0D0D0D"/>
</svg>
